<svg xmlns="http://www.w3.org/2000/svg" viewBox="0 0 1440 320"><style>@keyframes scroll{0%{transform:translateX(0)}to{transform:translateX(-1440px)}}@keyframes unscroll{0%{transform:translateX(1439px)}to{transform:translateX(0)}}</style><path fill="#ccc" fill-opacity=".5" d="m0 160 15 10.7C30 181 60 203 90 208s60-5 90 0 60 27 90 26.7c30 .3 60-21.7 90-48 30-26.7 60-58.7 90-37.4 30 21.7 60 95.7 90 101.4 30 5.3 60-58.7 90-101.4 30-42.3 60-64.3 90-80C750 53 780 43 810 48s60 27 90 37.3C930 96 960 96 990 128s60 96 90 85.3c30-10.3 60-96.3 90-101.3s60 69 90 69.3c30-.3 60-74.3 90-90.6 30-15.7 60 26.3 75 48l15 21.3v160H0Z" style="animation:scroll 2s linear infinite"/><path fill="#ccc" fill-opacity=".5" d="m0 160 15 10.7C30 181 60 203 90 208s60-5 90 0 60 27 90 26.7c30 .3 60-21.7 90-48 30-26.7 60-58.7 90-37.4 30 21.7 60 95.7 90 101.4 30 5.3 60-58.7 90-101.4 30-42.3 60-64.3 90-80C750 53 780 43 810 48s60 27 90 37.3C930 96 960 96 990 128s60 96 90 85.3c30-10.3 60-96.3 90-101.3s60 69 90 69.3c30-.3 60-74.3 90-90.6 30-15.7 60 26.3 75 48l15 21.3v160H0Z" style="animation:unscroll 2s linear infinite;transform:scaleX(-1);transform-origin:center;position:absolute;top:0;left:1440px"/><path style="stroke-opacity:1" d="M134.006 120.26s-54.794 46.208-76.393 96.57c-21.6 50.362 143.484 73.584 95.427 20.569C104.982 184.384-8.191 122.685 51.594 99.69c59.786-22.994 164.146 42.337 203.829 132.832 19.524 44.526 43.86-10.018 62.345-.52 17.965 9.228 14.687 48.89 34.873 49.547 17.57.572 33.093-41.06 33.093-41.06" fill="none" stroke="#1c1ccc" stroke-width="5" stroke-dasharray="1000" stroke-dashoffset="1000"><animate attributeName="stroke-dashoffset" values="0; -2000" dur="5s" repeatCount="indefinite"/></path><text x="50" y="200" font-size="80" font-family="sans-serif" fill="#1c1ccc" stroke="#000" stroke-width="3" stroke-dasharray="1000" stroke-dashoffset="1000">AppleBoy
  </text></svg>
