<svg xmlns="http://www.w3.org/2000/svg" viewBox="0 0 1440 320"><style>@keyframes scroll{0%{transform:translateX(0)}to{transform:translateX(-1440px)}}@keyframes unscroll{0%{transform:translateX(1439px)}to{transform:translateX(0)}}</style><path fill="#00fff0" fill-opacity=".55" d="M0 160v64h90v-32h90v64h90v-64h90V96h90v224h90V128h90V64h90V32h90v64h180v192h90V32h90v224h90V32h90v128h90v160H0Z" style="animation:scroll 2s linear infinite"/><path fill="#00fff0" fill-opacity=".55" d="M0 160v64h90v-32h90v64h90v-64h90V96h90v224h90V128h90V64h90V32h90v64h180v192h90V32h90v224h90V32h90v128h90v160H0Z" style="animation:unscroll 2s linear infinite;transform:scaleX(-1);transform-origin:center;position:absolute;top:0;left:1440px"/><path style="stroke-opacity:1" d="M132.924 123.853s-72.384 65.41-68.747 90.275c4.77 32.614 50.189 21.965 61.022 16.56 28.285-14.11 24.89-45.488-37.615-79.874-64.07-35.246-6.937-80.491 19.983-71.147 32.353 11.229 55.276 48.022 87.441 130.287 32.166 82.265 79.407 52.88 80.576 33.35 1.17-19.531-13.268 29.077 28.554 31.325 29.6 1.592 30.856-55.504 24.303-30.12-6.552 25.383 11.657 28.91 25.198 28.45 16.197-.55 21.883-10.888 26.368-20.58 15.156-32.75-9.697-2.641-9.697-2.641" fill="none" stroke="#1c1ccc" stroke-width="5" stroke-dasharray="1000" stroke-dashoffset="1000"><animate attributeName="stroke-dashoffset" values="0; -2000" dur="5s" repeatCount="indefinite"/></path><text x="50" y="200" font-size="80" font-family="sans-serif" fill="#1c1ccc" stroke="#000" stroke-width="3" stroke-dasharray="1000" stroke-dashoffset="1000">AppleBoy
  </text></svg>
