<svg xmlns="http://www.w3.org/2000/svg" viewBox="0 0 1440 320"><style>@keyframes scroll{0%{transform:translateX(0)}to{transform:translateX(-1440px)}}@keyframes unscroll{0%{transform:translateX(1439px)}to{transform:translateX(0)}}</style><path fill="#00fff0" fill-opacity=".55" d="M0 160v64h90v-32h90v64h90v-64h90V96h90v224h90V128h90V64h90V32h90v64h180v192h90V32h90v224h90V32h90v128h90v160H0Z" style="animation:scroll 2s linear infinite"/><path fill="#00fff0" fill-opacity=".55" d="M0 160v64h90v-32h90v64h90v-64h90V96h90v224h90V128h90V64h90V32h90v64h180v192h90V32h90v224h90V32h90v128h90v160H0Z" style="animation:unscroll 2s linear infinite;transform:scaleX(-1);transform-origin:center;position:absolute;top:0;left:1440px"/><path style="stroke-opacity:1" d="M134.006 120.26s-54.794 46.208-76.393 96.57c-21.6 50.362 143.484 73.584 95.427 20.569C104.982 184.384-8.191 122.685 51.594 99.69c59.786-22.994 164.146 42.337 203.829 132.832 19.524 44.526 43.86-10.018 62.345-.52 17.965 9.228 14.687 48.89 34.873 49.547 17.57.572 33.093-41.06 33.093-41.06" fill="none" stroke="#1c1ccc" stroke-width="5" stroke-dasharray="1000" stroke-dashoffset="1000"><animate attributeName="stroke-dashoffset" values="0; -2000" dur="5s" repeatCount="indefinite"/></path><text x="50" y="200" font-size="80" font-family="sans-serif" fill="#1c1ccc" stroke="#000" stroke-width="3" stroke-dasharray="1000" stroke-dashoffset="1000">AppleBoy
  </text></svg>
